<svg width="619" height="539" viewBox="0 0 619 539" fill="none" xmlns="http://www.w3.org/2000/svg">
<g opacity="0.5">
<path d="M461.188 14.3894C409.65 6.5934 400.633 118.528 349.1 110.699C317.486 105.897 315.929 56.0231 284.284 60.6163C254.099 64.9977 260.572 104.182 235.664 121.804C167.221 170.223 81.9508 -10.543 28.3787 66.171C-49.4247 177.584 215.993 184.211 170.899 270.391C146.284 317.433 48.5523 292.839 57.4537 345.191C70.8405 423.923 203.282 317.095 253.563 376.175C287.19 415.686 239.434 484.346 287.099 504.779C342.622 528.582 342.204 418.875 398.76 397.649C499.615 359.797 570.735 583.136 650.432 510.604C730.319 437.9 520.633 349.447 560.36 248.95C579.63 200.201 674.841 200.39 655.569 151.642C635.137 99.9587 551.131 177.099 504.369 147.127C457.891 117.338 515.757 22.644 461.188 14.3894Z" stroke="#1DB954" stroke-width="27" stroke-dasharray="4.5 4.5"/>
</g>
</svg>
