<svg width="199" height="26" viewBox="0 0 199 26" fill="none" xmlns="http://www.w3.org/2000/svg">
<path d="M14.6815 8.232C14.2122 7.63467 13.5935 7.16533 12.8255 6.824C12.0788 6.46133 11.3535 6.28 10.6495 6.28C10.2868 6.28 9.9135 6.312 9.5295 6.376C9.16684 6.44 8.83617 6.568 8.5375 6.76C8.23884 6.93067 7.98284 7.16533 7.7695 7.464C7.5775 7.74133 7.4815 8.104 7.4815 8.552C7.4815 8.936 7.55617 9.256 7.7055 9.512C7.87617 9.768 8.11084 9.992 8.4095 10.184C8.7295 10.376 9.10284 10.5573 9.5295 10.728C9.95617 10.8773 10.4362 11.0373 10.9695 11.208C11.7375 11.464 12.5375 11.752 13.3695 12.072C14.2015 12.3707 14.9588 12.776 15.6415 13.288C16.3242 13.8 16.8895 14.44 17.3375 15.208C17.7855 15.9547 18.0095 16.8933 18.0095 18.024C18.0095 19.3253 17.7642 20.456 17.2735 21.416C16.8042 22.3547 16.1642 23.1333 15.3535 23.752C14.5428 24.3707 13.6148 24.8293 12.5695 25.128C11.5242 25.4267 10.4468 25.576 9.3375 25.576C7.71617 25.576 6.14817 25.2987 4.6335 24.744C3.11884 24.168 1.86017 23.3573 0.857502 22.312L4.4415 18.664C4.99617 19.3467 5.7215 19.9227 6.6175 20.392C7.53484 20.84 8.4415 21.064 9.3375 21.064C9.74284 21.064 10.1375 21.0213 10.5215 20.936C10.9055 20.8507 11.2362 20.712 11.5135 20.52C11.8122 20.328 12.0468 20.072 12.2175 19.752C12.3882 19.432 12.4735 19.048 12.4735 18.6C12.4735 18.1733 12.3668 17.8107 12.1535 17.512C11.9402 17.2133 11.6308 16.9467 11.2255 16.712C10.8415 16.456 10.3508 16.232 9.7535 16.04C9.1775 15.8267 8.51617 15.6027 7.7695 15.368C7.04417 15.1333 6.3295 14.856 5.6255 14.536C4.94284 14.216 4.32417 13.8107 3.7695 13.32C3.23617 12.808 2.79884 12.2 2.4575 11.496C2.1375 10.7707 1.9775 9.896 1.9775 8.872C1.9775 7.61333 2.2335 6.536 2.7455 5.64C3.2575 4.744 3.9295 4.008 4.7615 3.432C5.5935 2.856 6.53217 2.44 7.5775 2.184C8.62284 1.90667 9.67884 1.768 10.7455 1.768C12.0255 1.768 13.3268 2.00267 14.6495 2.472C15.9935 2.94133 17.1668 3.63467 18.1695 4.552L14.6815 8.232ZM37.9078 16.968C37.9078 18.2693 37.6731 19.4533 37.2038 20.52C36.7344 21.5653 36.0944 22.4613 35.2838 23.208C34.4731 23.9333 33.5344 24.4987 32.4678 24.904C31.4011 25.3093 30.2598 25.512 29.0438 25.512C27.8491 25.512 26.7078 25.3093 25.6198 24.904C24.5531 24.4987 23.6144 23.9333 22.8038 23.208C22.0144 22.4613 21.3851 21.5653 20.9158 20.52C20.4464 19.4533 20.2118 18.2693 20.2118 16.968C20.2118 15.6667 20.4464 14.4933 20.9158 13.448C21.3851 12.4027 22.0144 11.5173 22.8038 10.792C23.6144 10.0667 24.5531 9.512 25.6198 9.128C26.7078 8.744 27.8491 8.552 29.0438 8.552C30.2598 8.552 31.4011 8.744 32.4678 9.128C33.5344 9.512 34.4731 10.0667 35.2838 10.792C36.0944 11.5173 36.7344 12.4027 37.2038 13.448C37.6731 14.4933 37.9078 15.6667 37.9078 16.968ZM32.8518 16.968C32.8518 16.456 32.7664 15.9547 32.5958 15.464C32.4251 14.9733 32.1798 14.5467 31.8598 14.184C31.5398 13.8 31.1451 13.4907 30.6758 13.256C30.2064 13.0213 29.6624 12.904 29.0438 12.904C28.4251 12.904 27.8811 13.0213 27.4118 13.256C26.9424 13.4907 26.5478 13.8 26.2278 14.184C25.9291 14.5467 25.6944 14.9733 25.5238 15.464C25.3744 15.9547 25.2998 16.456 25.2998 16.968C25.2998 17.48 25.3744 17.9813 25.5238 18.472C25.6944 18.9627 25.9398 19.4107 26.2598 19.816C26.5798 20.2 26.9744 20.5093 27.4438 20.744C27.9131 20.9787 28.4571 21.096 29.0758 21.096C29.6944 21.096 30.2384 20.9787 30.7078 20.744C31.1771 20.5093 31.5718 20.2 31.8918 19.816C32.2118 19.4107 32.4464 18.9627 32.5958 18.472C32.7664 17.9813 32.8518 17.48 32.8518 16.968ZM51.4065 25V22.792H51.3425C51.1505 23.1547 50.8945 23.496 50.5745 23.816C50.2758 24.136 49.9132 24.4133 49.4865 24.648C49.0812 24.8827 48.6225 25.0747 48.1105 25.224C47.6198 25.3733 47.0972 25.448 46.5425 25.448C45.4758 25.448 44.5692 25.256 43.8225 24.872C43.0972 24.488 42.4998 23.9973 42.0305 23.4C41.5825 22.7813 41.2518 22.088 41.0385 21.32C40.8465 20.5307 40.7505 19.7307 40.7505 18.92V9.064H46.0305V17.704C46.0305 18.152 46.0625 18.5787 46.1265 18.984C46.1905 19.3893 46.3078 19.752 46.4785 20.072C46.6705 20.392 46.9158 20.648 47.2145 20.84C47.5132 21.0107 47.9078 21.096 48.3985 21.096C49.3158 21.096 50.0092 20.7547 50.4785 20.072C50.9692 19.3893 51.2145 18.5893 51.2145 17.672V9.064H56.4625V25H51.4065ZM70.7108 25V16.296C70.7108 15.848 70.6681 15.4213 70.5828 15.016C70.5188 14.6107 70.4014 14.2587 70.2308 13.96C70.0601 13.64 69.8148 13.3947 69.4948 13.224C69.1961 13.032 68.8121 12.936 68.3428 12.936C67.8734 12.936 67.4574 13.032 67.0948 13.224C66.7534 13.3947 66.4654 13.64 66.2308 13.96C65.9961 14.28 65.8148 14.6533 65.6868 15.08C65.5801 15.4853 65.5268 15.912 65.5268 16.36V25H60.2468V9.064H65.3348V11.272H65.3988C65.5908 10.9307 65.8361 10.6 66.1348 10.28C66.4548 9.93867 66.8174 9.65067 67.2228 9.416C67.6494 9.18133 68.1081 8.98933 68.5988 8.84C69.0894 8.69067 69.6121 8.616 70.1668 8.616C71.2334 8.616 72.1401 8.808 72.8868 9.192C73.6334 9.576 74.2308 10.0773 74.6788 10.696C75.1481 11.2933 75.4788 11.9867 75.6708 12.776C75.8841 13.5653 75.9908 14.3547 75.9908 15.144V25H70.7108ZM91.7095 25V22.92H91.6455C91.1335 23.7307 90.3975 24.36 89.4375 24.808C88.4988 25.2347 87.4962 25.448 86.4295 25.448C85.2348 25.448 84.1682 25.2133 83.2295 24.744C82.2908 24.2747 81.4908 23.656 80.8295 22.888C80.1895 22.0987 79.6988 21.192 79.3575 20.168C79.0162 19.144 78.8455 18.0773 78.8455 16.968C78.8455 15.8587 79.0162 14.8027 79.3575 13.8C79.7202 12.776 80.2215 11.88 80.8615 11.112C81.5228 10.344 82.3122 9.736 83.2295 9.288C84.1682 8.84 85.2135 8.616 86.3655 8.616C87.5388 8.616 88.5308 8.84 89.3415 9.288C90.1522 9.736 90.7815 10.2267 91.2295 10.76H91.2935V0.807999H96.5415V25H91.7095ZM91.5175 17C91.5175 16.488 91.4215 15.9867 91.2295 15.496C91.0588 15.0053 90.8028 14.568 90.4615 14.184C90.1415 13.8 89.7468 13.4907 89.2775 13.256C88.8082 13.0213 88.2748 12.904 87.6775 12.904C87.0588 12.904 86.5148 13.0213 86.0455 13.256C85.5762 13.4907 85.1815 13.8 84.8615 14.184C84.5415 14.5467 84.2962 14.9733 84.1255 15.464C83.9762 15.9547 83.9015 16.456 83.9015 16.968C83.9015 17.48 83.9762 17.992 84.1255 18.504C84.2962 18.9947 84.5415 19.432 84.8615 19.816C85.1815 20.2 85.5762 20.5093 86.0455 20.744C86.5148 20.9787 87.0588 21.096 87.6775 21.096C88.2748 21.096 88.8082 20.9787 89.2775 20.744C89.7468 20.5093 90.1415 20.2 90.4615 19.816C90.8028 19.432 91.0588 18.9947 91.2295 18.504C91.4215 18.0133 91.5175 17.512 91.5175 17ZM120.612 21.864C119.609 23.016 118.372 23.9333 116.9 24.616C115.428 25.2773 113.732 25.608 111.812 25.608C110.063 25.608 108.441 25.32 106.948 24.744C105.476 24.168 104.196 23.3573 103.108 22.312C102.02 21.2453 101.167 19.976 100.548 18.504C99.9293 17.032 99.62 15.4107 99.62 13.64C99.62 11.8267 99.9293 10.184 100.548 8.712C101.188 7.24 102.063 5.992 103.172 4.968C104.281 3.92267 105.583 3.12267 107.076 2.568C108.569 2.01333 110.18 1.736 111.908 1.736C113.508 1.736 115.076 2.024 116.612 2.6C118.169 3.15467 119.428 3.976 120.388 5.064L116.676 8.776C116.164 8.072 115.492 7.54933 114.66 7.208C113.828 6.86667 112.975 6.696 112.1 6.696C111.14 6.696 110.255 6.87733 109.444 7.24C108.655 7.58133 107.972 8.06133 107.396 8.68C106.82 9.29867 106.372 10.0347 106.052 10.888C105.732 11.72 105.572 12.6373 105.572 13.64C105.572 14.664 105.732 15.6027 106.052 16.456C106.372 17.3093 106.809 18.0453 107.364 18.664C107.94 19.2613 108.623 19.7307 109.412 20.072C110.201 20.4133 111.065 20.584 112.004 20.584C113.092 20.584 114.041 20.3707 114.852 19.944C115.663 19.5173 116.313 18.9627 116.804 18.28L120.612 21.864ZM132.685 13.352C132.451 13.288 132.216 13.2453 131.981 13.224C131.768 13.2027 131.555 13.192 131.341 13.192C130.637 13.192 130.04 13.32 129.549 13.576C129.08 13.832 128.696 14.1413 128.397 14.504C128.12 14.8667 127.917 15.2613 127.789 15.688C127.661 16.1147 127.597 16.488 127.597 16.808V25H122.349V9.064H127.405V11.368H127.469C127.875 10.5573 128.451 9.896 129.197 9.384C129.944 8.872 130.808 8.616 131.789 8.616C132.003 8.616 132.205 8.62667 132.397 8.648C132.611 8.66933 132.781 8.70133 132.909 8.744L132.685 13.352ZM151.05 16.968C151.05 18.2693 150.816 19.4533 150.346 20.52C149.877 21.5653 149.237 22.4613 148.426 23.208C147.616 23.9333 146.677 24.4987 145.61 24.904C144.544 25.3093 143.402 25.512 142.186 25.512C140.992 25.512 139.85 25.3093 138.762 24.904C137.696 24.4987 136.757 23.9333 135.946 23.208C135.157 22.4613 134.528 21.5653 134.058 20.52C133.589 19.4533 133.354 18.2693 133.354 16.968C133.354 15.6667 133.589 14.4933 134.058 13.448C134.528 12.4027 135.157 11.5173 135.946 10.792C136.757 10.0667 137.696 9.512 138.762 9.128C139.85 8.744 140.992 8.552 142.186 8.552C143.402 8.552 144.544 8.744 145.61 9.128C146.677 9.512 147.616 10.0667 148.426 10.792C149.237 11.5173 149.877 12.4027 150.346 13.448C150.816 14.4933 151.05 15.6667 151.05 16.968ZM145.994 16.968C145.994 16.456 145.909 15.9547 145.738 15.464C145.568 14.9733 145.322 14.5467 145.002 14.184C144.682 13.8 144.288 13.4907 143.818 13.256C143.349 13.0213 142.805 12.904 142.186 12.904C141.568 12.904 141.024 13.0213 140.554 13.256C140.085 13.4907 139.69 13.8 139.37 14.184C139.072 14.5467 138.837 14.9733 138.666 15.464C138.517 15.9547 138.442 16.456 138.442 16.968C138.442 17.48 138.517 17.9813 138.666 18.472C138.837 18.9627 139.082 19.4107 139.402 19.816C139.722 20.2 140.117 20.5093 140.586 20.744C141.056 20.9787 141.6 21.096 142.218 21.096C142.837 21.096 143.381 20.9787 143.85 20.744C144.32 20.5093 144.714 20.2 145.034 19.816C145.354 19.4107 145.589 18.9627 145.738 18.472C145.909 17.9813 145.994 17.48 145.994 16.968ZM174.341 25H169.061L165.925 15.08H165.861L162.789 25H157.509L152.005 9.064H157.669L160.421 19.144H160.517L163.365 9.064H168.645L171.589 19.144H171.653L174.437 9.064H179.877L174.341 25ZM193.672 25V22.92H193.608C193.096 23.7307 192.36 24.36 191.4 24.808C190.461 25.2347 189.459 25.448 188.392 25.448C187.197 25.448 186.131 25.2133 185.192 24.744C184.253 24.2747 183.453 23.656 182.792 22.888C182.152 22.0987 181.661 21.192 181.32 20.168C180.979 19.144 180.808 18.0773 180.808 16.968C180.808 15.8587 180.979 14.8027 181.32 13.8C181.683 12.776 182.184 11.88 182.824 11.112C183.485 10.344 184.275 9.736 185.192 9.288C186.131 8.84 187.176 8.616 188.328 8.616C189.501 8.616 190.493 8.84 191.304 9.288C192.115 9.736 192.744 10.2267 193.192 10.76H193.256V0.807999H198.504V25H193.672ZM193.48 17C193.48 16.488 193.384 15.9867 193.192 15.496C193.021 15.0053 192.765 14.568 192.424 14.184C192.104 13.8 191.709 13.4907 191.24 13.256C190.771 13.0213 190.237 12.904 189.64 12.904C189.021 12.904 188.477 13.0213 188.008 13.256C187.539 13.4907 187.144 13.8 186.824 14.184C186.504 14.5467 186.259 14.9733 186.088 15.464C185.939 15.9547 185.864 16.456 185.864 16.968C185.864 17.48 185.939 17.992 186.088 18.504C186.259 18.9947 186.504 19.432 186.824 19.816C187.144 20.2 187.539 20.5093 188.008 20.744C188.477 20.9787 189.021 21.096 189.64 21.096C190.237 21.096 190.771 20.9787 191.24 20.744C191.709 20.5093 192.104 20.2 192.424 19.816C192.765 19.432 193.021 18.9947 193.192 18.504C193.384 18.0133 193.48 17.512 193.48 17Z" fill="#F9FEEB"/>
</svg>
