<svg width="103" height="146" viewBox="0 0 103 146" fill="none" xmlns="http://www.w3.org/2000/svg">
<path d="M46.6866 4.79122C46.6866 4.79122 4.00783 17.9856 11.24 50.3661C13.065 58.5375 18.2275 63.9428 24.8315 67.0957M24.8315 67.0957C44.3971 76.4367 76.6163 66.007 72.1888 49.1625C67.0968 29.7897 29.4672 40.6181 24.8315 67.0957ZM24.8315 67.0957C24.076 71.4107 24.1968 76.1413 25.4775 81.2245C28.9132 94.8611 38.4447 102.37 48.7889 105.495M48.7889 105.495C65.9613 110.683 85.3733 103.787 82.8528 92.7843C79.2839 77.2045 51.2455 86.6476 48.7889 105.495ZM48.7889 105.495C48.4654 107.977 48.5854 110.621 49.263 113.393C55.0873 137.218 86.2068 130.557 86.2068 130.557" stroke="#D1D5DB" stroke-opacity="0.15" stroke-width="8.42291"/>
</svg>
