<svg width="364" height="539" viewBox="0 0 364 539" fill="none" xmlns="http://www.w3.org/2000/svg">
<path d="M142.188 14.392C90.65 6.59596 81.6325 118.53 30.0996 110.702C-1.51407 105.899 -3.07124 56.0256 -34.7159 60.6189C-64.9013 65.0002 -58.4276 104.185 -83.3362 121.806C-151.779 170.226 -237.049 -10.5404 -290.621 66.1736C-368.425 177.586 -103.007 184.213 -148.101 270.394C-172.716 317.436 -270.448 292.841 -261.546 345.193C-248.159 423.925 -115.718 317.097 -65.4369 376.178C-31.8103 415.689 -79.5664 484.349 -31.9014 504.782C23.6222 528.584 23.2041 418.878 79.7604 397.651C180.615 359.799 251.735 583.138 331.432 510.607C411.319 437.902 201.633 349.449 241.36 248.952C260.63 200.203 355.841 200.393 336.569 151.645C316.137 99.9613 232.131 177.101 185.369 147.13C138.891 117.34 196.757 22.6466 142.188 14.392Z" stroke="#D1D5DB" stroke-opacity="0.15" stroke-width="27" stroke-dasharray="4.5 4.5"/>
</svg>
