<svg width="344" height="423" viewBox="0 0 344 423" fill="none" xmlns="http://www.w3.org/2000/svg">
<path opacity="0.5" d="M82.6049 6.4276C-9.44331 15.2382 73.2122 152.776 73.2122 152.776C73.2122 152.776 -110.508 21.515 -104.873 208.976C-99.2375 396.438 67.9523 251.598 67.9523 251.598C67.9523 251.598 -75.9436 383.613 67.9523 413.788C211.848 443.963 146.475 251.598 146.475 251.598C146.475 251.598 233.264 413.788 317.422 300.632C401.58 187.477 189.306 190.494 189.306 190.494C189.306 190.494 398.216 184.459 306.527 61.4967C214.837 -61.4659 146.475 127.881 146.475 127.881C146.475 127.881 174.653 -2.38297 82.6049 6.4276Z" stroke="#F674A2" stroke-width="11.9825"/>
</svg>
