<svg width="442" height="69" viewBox="0 0 442 69" fill="none" xmlns="http://www.w3.org/2000/svg">
<path d="M46.4553 24.912H36.4793V20.388H32.7673V46.488H36.8273V56H12.4673V46.488H16.5273V20.388H12.8153V24.912H2.83934V10.876H46.4553V24.912ZM86.4912 46.488V56H70.5992V51.476C67.8152 55.0333 64.3352 56.812 60.1592 56.812C56.9499 56.812 54.5332 55.8067 52.9092 53.796C51.3239 51.7853 50.5312 49.0207 50.5312 45.502V33.264H47.9792V23.752H63.8712V42.776C63.8712 44.052 64.1419 44.9993 64.6832 45.618C65.2632 46.198 66.1139 46.488 67.2352 46.488C68.3565 46.488 69.1879 46.198 69.7292 45.618C70.3092 44.9993 70.5992 44.052 70.5992 42.776V33.264H67.4672V23.752H83.9392V46.488H86.4912ZM126.601 46.488V56H108.273V46.488H110.709V36.976C110.709 35.7 110.438 34.772 109.897 34.192C109.356 33.5733 108.544 33.264 107.461 33.264C105.141 33.264 103.981 34.5013 103.981 36.976V46.488H106.417V56H88.0889V46.488H90.6409V33.264H88.0889V23.752H103.981V28.276C106.765 24.7187 110.245 22.94 114.421 22.94C117.63 22.94 120.028 23.9453 121.613 25.956C123.237 27.9667 124.049 30.7313 124.049 34.25V46.488H126.601ZM145.758 56.812C140.267 56.812 135.975 55.3813 132.882 52.52C129.788 49.62 128.242 45.4053 128.242 39.876C128.242 34.3467 129.788 30.1513 132.882 27.29C135.975 24.39 140.267 22.94 145.758 22.94C151.21 22.94 155.134 24.3707 157.532 27.232C159.968 30.0547 161.186 33.5733 161.186 37.788V41.964H142.394V42.312C142.394 43.7427 142.819 44.806 143.67 45.502C144.52 46.1593 145.932 46.488 147.904 46.488C150.262 46.488 152.505 46.314 154.632 45.966C156.758 45.618 158.614 45.1733 160.2 44.632V53.912C158.846 54.6467 156.855 55.3233 154.226 55.942C151.635 56.522 148.812 56.812 145.758 56.812ZM149.122 35.584V34.888C149.122 33.5733 148.832 32.626 148.252 32.046C147.71 31.466 146.879 31.176 145.758 31.176C144.636 31.176 143.786 31.4853 143.206 32.104C142.664 32.684 142.394 33.612 142.394 34.888V35.584H149.122ZM206.295 24.912H196.319V20.388H192.607V46.488H196.667V56H172.307V46.488H176.367V20.388H172.655V24.912H162.679V10.876H206.295V24.912ZM232.933 22.94C233.706 22.94 234.441 23.0173 235.137 23.172C235.833 23.3267 236.413 23.52 236.877 23.752V34.83C235.292 34.1727 233.59 33.844 231.773 33.844C229.337 33.844 227.462 34.482 226.147 35.758C224.832 37.034 224.175 38.9287 224.175 41.442V46.488H229.395V56H208.283V46.488H210.835V33.264H208.283V23.752H224.175V27.986C225.258 26.362 226.495 25.1247 227.887 24.274C229.279 23.3847 230.961 22.94 232.933 22.94ZM256.037 56.812C250.546 56.812 246.254 55.3813 243.161 52.52C240.068 49.62 238.521 45.4053 238.521 39.876C238.521 34.3467 240.068 30.1513 243.161 27.29C246.254 24.39 250.546 22.94 256.037 22.94C261.605 22.94 265.916 24.4093 268.971 27.348C272.026 30.248 273.553 34.424 273.553 39.876C273.553 45.4053 272.006 49.62 268.913 52.52C265.82 55.3813 261.528 56.812 256.037 56.812ZM256.037 46.488C257.158 46.488 257.99 46.198 258.531 45.618C259.111 44.9993 259.401 44.052 259.401 42.776V36.976C259.401 35.7 259.111 34.772 258.531 34.192C257.99 33.5733 257.158 33.264 256.037 33.264C254.916 33.264 254.065 33.5733 253.485 34.192C252.944 34.772 252.673 35.7 252.673 36.976V42.776C252.673 44.052 252.944 44.9993 253.485 45.618C254.065 46.198 254.916 46.488 256.037 46.488ZM275.399 56.058V46.488H277.951V20.388H275.399V10.876H291.291V46.488H293.843V56.058H275.399ZM295.677 56.058V46.488H298.229V20.388H295.677V10.876H311.569V46.488H314.121V56.058H295.677ZM333.238 56.812C327.747 56.812 323.455 55.3813 320.362 52.52C317.269 49.62 315.722 45.4053 315.722 39.876C315.722 34.3467 317.269 30.1513 320.362 27.29C323.455 24.39 327.747 22.94 333.238 22.94C338.69 22.94 342.615 24.3707 345.012 27.232C347.448 30.0547 348.666 33.5733 348.666 37.788V41.964H329.874V42.312C329.874 43.7427 330.299 44.806 331.15 45.502C332.001 46.1593 333.412 46.488 335.384 46.488C337.743 46.488 339.985 46.314 342.112 45.966C344.239 45.618 346.095 45.1733 347.68 44.632V53.912C346.327 54.6467 344.335 55.3233 341.706 55.942C339.115 56.522 336.293 56.812 333.238 56.812ZM336.602 35.584V34.888C336.602 33.5733 336.312 32.626 335.732 32.046C335.191 31.466 334.359 31.176 333.238 31.176C332.117 31.176 331.266 31.4853 330.686 32.104C330.145 32.684 329.874 33.612 329.874 34.888V35.584H336.602ZM385.308 23.752V33.264H383.104L375.506 53.39C373.611 58.4553 371.446 62.2447 369.01 64.758C366.574 67.31 363.364 68.586 359.382 68.586C357.758 68.586 356.114 68.412 354.452 68.064C352.789 67.7547 351.281 67.31 349.928 66.73V56.232H357.932V56.812C357.932 57.7787 358.434 58.262 359.44 58.262C360.329 58.262 361.006 57.8367 361.47 56.986L352.306 33.264H350.102V23.752H367.328V33.264H365.356L368.372 42.312L371.156 33.264H369.184V23.752H385.308Z" fill="black"/>
<path d="M44.428 16.912H34.452V12.388H30.74V38.488H34.8V48H10.44V38.488H14.5V12.388H10.788V16.912H0.812V2.876H44.428V16.912ZM84.4639 38.488V48H68.5719V43.476C65.7879 47.0333 62.3079 48.812 58.1319 48.812C54.9225 48.812 52.5059 47.8067 50.8819 45.796C49.2965 43.7853 48.5039 41.0207 48.5039 37.502V25.264H45.9519V15.752H61.8439V34.776C61.8439 36.052 62.1145 36.9993 62.6559 37.618C63.2359 38.198 64.0865 38.488 65.2079 38.488C66.3292 38.488 67.1605 38.198 67.7019 37.618C68.2819 36.9993 68.5719 36.052 68.5719 34.776V25.264H65.4399V15.752H81.9119V38.488H84.4639ZM124.574 38.488V48H106.246V38.488H108.682V28.976C108.682 27.7 108.411 26.772 107.87 26.192C107.328 25.5733 106.516 25.264 105.434 25.264C103.114 25.264 101.954 26.5013 101.954 28.976V38.488H104.39V48H86.0616V38.488H88.6136V25.264H86.0616V15.752H101.954V20.276C104.738 16.7187 108.218 14.94 112.394 14.94C115.603 14.94 118 15.9453 119.586 17.956C121.21 19.9667 122.022 22.7313 122.022 26.25V38.488H124.574ZM143.73 48.812C138.24 48.812 133.948 47.3813 130.854 44.52C127.761 41.62 126.214 37.4053 126.214 31.876C126.214 26.3467 127.761 22.1513 130.854 19.29C133.948 16.39 138.24 14.94 143.73 14.94C149.182 14.94 153.107 16.3707 155.504 19.232C157.94 22.0547 159.158 25.5733 159.158 29.788V33.964H140.366V34.312C140.366 35.7427 140.792 36.806 141.642 37.502C142.493 38.1593 143.904 38.488 145.876 38.488C148.235 38.488 150.478 38.314 152.604 37.966C154.731 37.618 156.587 37.1733 158.172 36.632V45.912C156.819 46.6467 154.828 47.3233 152.198 47.942C149.608 48.522 146.785 48.812 143.73 48.812ZM147.094 27.584V26.888C147.094 25.5733 146.804 24.626 146.224 24.046C145.683 23.466 144.852 23.176 143.73 23.176C142.609 23.176 141.758 23.4853 141.178 24.104C140.637 24.684 140.366 25.612 140.366 26.888V27.584H147.094ZM204.268 16.912H194.292V12.388H190.58V38.488H194.64V48H170.28V38.488H174.34V12.388H170.628V16.912H160.652V2.876H204.268V16.912ZM230.906 14.94C231.679 14.94 232.414 15.0173 233.11 15.172C233.806 15.3267 234.386 15.52 234.85 15.752V26.83C233.264 26.1727 231.563 25.844 229.746 25.844C227.31 25.844 225.434 26.482 224.12 27.758C222.805 29.034 222.148 30.9287 222.148 33.442V38.488H227.368V48H206.256V38.488H208.808V25.264H206.256V15.752H222.148V19.986C223.23 18.362 224.468 17.1247 225.86 16.274C227.252 15.3847 228.934 14.94 230.906 14.94ZM254.01 48.812C248.519 48.812 244.227 47.3813 241.134 44.52C238.04 41.62 236.494 37.4053 236.494 31.876C236.494 26.3467 238.04 22.1513 241.134 19.29C244.227 16.39 248.519 14.94 254.01 14.94C259.578 14.94 263.889 16.4093 266.944 19.348C269.998 22.248 271.526 26.424 271.526 31.876C271.526 37.4053 269.979 41.62 266.886 44.52C263.792 47.3813 259.5 48.812 254.01 48.812ZM254.01 38.488C255.131 38.488 255.962 38.198 256.504 37.618C257.084 36.9993 257.374 36.052 257.374 34.776V28.976C257.374 27.7 257.084 26.772 256.504 26.192C255.962 25.5733 255.131 25.264 254.01 25.264C252.888 25.264 252.038 25.5733 251.458 26.192C250.916 26.772 250.646 27.7 250.646 28.976V34.776C250.646 36.052 250.916 36.9993 251.458 37.618C252.038 38.198 252.888 38.488 254.01 38.488ZM273.372 48.058V38.488H275.924V12.388H273.372V2.876H289.264V38.488H291.816V48.058H273.372ZM293.649 48.058V38.488H296.201V12.388H293.649V2.876H309.541V38.488H312.093V48.058H293.649ZM331.211 48.812C325.72 48.812 321.428 47.3813 318.335 44.52C315.241 41.62 313.695 37.4053 313.695 31.876C313.695 26.3467 315.241 22.1513 318.335 19.29C321.428 16.39 325.72 14.94 331.211 14.94C336.663 14.94 340.587 16.3707 342.985 19.232C345.421 22.0547 346.639 25.5733 346.639 29.788V33.964H327.847V34.312C327.847 35.7427 328.272 36.806 329.123 37.502C329.973 38.1593 331.385 38.488 333.357 38.488C335.715 38.488 337.958 38.314 340.085 37.966C342.211 37.618 344.067 37.1733 345.653 36.632V45.912C344.299 46.6467 342.308 47.3233 339.679 47.942C337.088 48.522 334.265 48.812 331.211 48.812ZM334.575 27.584V26.888C334.575 25.5733 334.285 24.626 333.705 24.046C333.163 23.466 332.332 23.176 331.211 23.176C330.089 23.176 329.239 23.4853 328.659 24.104C328.117 24.684 327.847 25.612 327.847 26.888V27.584H334.575ZM383.28 15.752V25.264H381.076L373.478 45.39C371.584 50.4553 369.418 54.2447 366.982 56.758C364.546 59.31 361.337 60.586 357.354 60.586C355.73 60.586 354.087 60.412 352.424 60.064C350.762 59.7547 349.254 59.31 347.9 58.73V48.232H355.904V48.812C355.904 49.7787 356.407 50.262 357.412 50.262C358.302 50.262 358.978 49.8367 359.442 48.986L350.278 25.264H348.074V15.752H365.3V25.264H363.328L366.344 34.312L369.128 25.264H367.156V15.752H383.28Z" fill="white"/>
</svg>
