<svg width="273" height="32" viewBox="0 0 273 32" fill="none" xmlns="http://www.w3.org/2000/svg">
<path d="M14.154 31.504C8.946 31.504 3.99 29.866 0.378 26.632L4.914 21.214C7.812 23.524 11.046 24.742 14.448 24.742C16.632 24.742 17.808 23.986 17.808 22.726V22.642C17.808 21.424 16.842 20.752 12.852 19.828C6.594 18.4 1.764 16.636 1.764 10.588V10.504C1.764 5.044 6.09 1.096 13.146 1.096C18.144 1.096 22.05 2.44 25.242 5.002L21.168 10.756C18.48 8.866 15.54 7.858 12.936 7.858C10.962 7.858 9.996 8.698 9.996 9.748V9.832C9.996 11.176 11.004 11.764 15.078 12.688C21.84 14.158 26.04 16.342 26.04 21.844V21.928C26.04 27.934 21.294 31.504 14.154 31.504ZM41.1324 31.546C33.8664 31.546 28.6164 26.212 28.6164 19.744V19.66C28.6164 13.192 33.9084 7.774 41.2164 7.774C48.4824 7.774 53.7324 13.108 53.7324 19.576V19.66C53.7324 26.128 48.4404 31.546 41.1324 31.546ZM41.2164 24.784C44.1144 24.784 45.9624 22.474 45.9624 19.744V19.66C45.9624 16.888 43.9464 14.536 41.1324 14.536C38.2344 14.536 36.3864 16.846 36.3864 19.576V19.66C36.3864 22.432 38.4024 24.784 41.2164 24.784ZM64.6629 31.504C59.8329 31.504 56.9349 28.312 56.9349 23.146V8.278H64.9149V20.584C64.9149 23.062 66.2169 24.406 68.1489 24.406C70.0389 24.406 71.4669 23.062 71.4669 20.584V8.278H79.4469V31H71.4669V27.892C69.9969 29.782 67.8969 31.504 64.6629 31.504ZM83.7221 31V8.278H91.7021V11.47C93.1721 9.58 95.2721 7.774 98.5061 7.774C103.336 7.774 106.234 10.966 106.234 16.132V31H98.2541V18.694C98.2541 16.216 96.9521 14.872 95.0621 14.872C93.1301 14.872 91.7021 16.216 91.7021 18.694V31H83.7221ZM119.539 31.504C114.163 31.504 109.501 27.01 109.501 19.744V19.66C109.501 12.268 114.121 7.774 119.497 7.774C122.941 7.774 124.957 9.328 126.469 11.05V0.339999H134.449V31H126.469V27.976C124.915 29.866 122.941 31.504 119.539 31.504ZM121.975 24.826C124.537 24.826 126.595 22.684 126.595 19.66V19.576C126.595 16.594 124.537 14.452 121.975 14.452C119.413 14.452 117.313 16.552 117.313 19.576V19.66C117.313 22.684 119.413 24.826 121.975 24.826ZM153.34 31.588C144.94 31.588 138.178 25.162 138.178 16.384V16.3C138.178 7.732 144.772 1.012 153.676 1.012C159.682 1.012 163.546 3.532 166.15 7.144L160.018 11.89C158.338 9.79 156.406 8.446 153.592 8.446C149.476 8.446 146.578 11.932 146.578 16.216V16.3C146.578 20.71 149.476 24.154 153.592 24.154C156.658 24.154 158.464 22.726 160.228 20.584L166.36 24.952C163.588 28.774 159.85 31.588 153.34 31.588ZM169.404 31V8.278H177.384V12.856C178.686 9.748 180.786 7.732 184.566 7.9V16.3H183.894C179.736 16.3 177.384 18.694 177.384 23.944V31H169.404ZM198.55 31.546C191.284 31.546 186.034 26.212 186.034 19.744V19.66C186.034 13.192 191.326 7.774 198.634 7.774C205.9 7.774 211.15 13.108 211.15 19.576V19.66C211.15 26.128 205.858 31.546 198.55 31.546ZM198.634 24.784C201.532 24.784 203.38 22.474 203.38 19.744V19.66C203.38 16.888 201.364 14.536 198.55 14.536C195.652 14.536 193.804 16.846 193.804 19.576V19.66C193.804 22.432 195.82 24.784 198.634 24.784ZM218.747 31.168L211.817 8.278H219.629L222.611 19.702L226.097 8.194H232.691L236.219 19.786L239.285 8.278H246.971L239.957 31.168H233.069L229.373 19.366L225.593 31.168H218.747ZM258.008 31.504C252.632 31.504 247.97 27.01 247.97 19.744V19.66C247.97 12.268 252.59 7.774 257.966 7.774C261.41 7.774 263.426 9.328 264.938 11.05V0.339999H272.918V31H264.938V27.976C263.384 29.866 261.41 31.504 258.008 31.504ZM260.444 24.826C263.006 24.826 265.064 22.684 265.064 19.66V19.576C265.064 16.594 263.006 14.452 260.444 14.452C257.882 14.452 255.782 16.552 255.782 19.576V19.66C255.782 22.684 257.882 24.826 260.444 24.826Z" fill="white"/>
</svg>
