<svg width="58" height="43" viewBox="0 0 58 43" fill="none" xmlns="http://www.w3.org/2000/svg">
<path d="M27.5625 4.22318C27.5625 6.52673 27.5625 13.8213 27.5625 20.348C27.5625 42.9228 27.5625 42.9996 28.7911 42.9996C30.0196 42.9996 30.0196 43.3835 30.0964 20.7319C30.0964 0.537495 30.0964 0 28.7911 0C27.9464 0 27.6393 0.998207 27.5625 4.22318Z" fill="#CDF563"/>
<path d="M17.0425 7.14173C16.5818 7.67923 16.1979 13.5917 16.1211 21.5773C16.1211 32.1736 16.2747 35.245 17.1193 35.9361C17.7336 36.4736 18.4246 36.6272 18.655 36.32C19.4228 35.5522 19.2693 7.06495 18.5014 6.60424C18.1175 6.37388 17.5032 6.60424 17.0425 7.14173Z" fill="#CDF563"/>
<path d="M38.3867 21.4239C38.3867 33.8631 38.5403 36.0898 39.5385 36.0898C41.3045 36.0898 41.5349 33.7095 41.3045 19.965C41.0742 8.60082 40.9206 7.29548 39.7688 7.06512C38.4635 6.83477 38.3867 7.90976 38.3867 21.4239Z" fill="#CDF563"/>
<path d="M21.9568 11.9778C21.3425 13.5135 21.3425 28.2562 21.9568 30.483C22.4943 32.3258 24.5675 32.9401 24.6443 31.2509C24.6443 30.4062 24.6443 14.1278 24.5675 11.6707C24.5675 10.3653 22.4943 10.5189 21.9568 11.9778Z" fill="#CDF563"/>
<path d="M33.0137 21.4991C33.0137 30.1758 33.244 32.249 34.0887 32.249C35.7011 32.249 36.1619 29.1008 36.0083 20.4241C35.8547 11.8242 35.6244 10.7492 34.0887 10.7492C33.244 10.7492 33.0137 12.8224 33.0137 21.4991Z" fill="#CDF563"/>
<path d="M11.7433 14.358C10.2844 14.8955 10.3612 27.1811 11.7433 28.3329C13.4326 29.715 13.8165 28.4864 13.8165 21.4222C13.8165 14.6651 13.5094 13.7437 11.7433 14.358Z" fill="#CDF563"/>
<path d="M44.2995 14.359C43.6085 14.9733 43.6085 28.0267 44.2995 28.641C44.5299 28.9481 45.221 28.7946 45.8352 28.3338C46.5263 27.7196 46.8335 25.5696 46.8335 21.8839C46.8335 14.8197 46.0656 12.5161 44.2995 14.359Z" fill="#CDF563"/>
<path d="M5.67723 18.735C4.83259 20.9617 5.75401 24.9546 7.13614 25.1849C8.21113 25.4153 8.44149 24.8778 8.44149 21.576C8.44149 18.5814 8.13435 17.66 7.28971 17.66C6.59865 17.66 5.90758 18.1207 5.67723 18.735Z" fill="#CDF563"/>
<path d="M49.1387 21.4994C49.1387 24.8779 49.369 25.4154 50.5208 25.1851C51.519 24.9547 51.8261 24.1869 51.8261 21.4994C51.8261 18.8119 51.519 18.0441 50.5208 17.8137C49.369 17.5834 49.1387 18.1209 49.1387 21.4994Z" fill="#CDF563"/>
<path d="M0.302726 19.5033C-0.465124 21.4229 0.302726 24.1872 1.76164 24.4175C2.83663 24.6479 3.06698 24.1104 3.06698 21.5765C3.06698 19.2729 2.75984 18.4283 1.91521 18.4283C1.22415 18.4283 0.533081 18.889 0.302726 19.5033Z" fill="#CDF563"/>
<path d="M54.5117 21.4999C54.5117 24.1106 54.7421 24.6481 55.8938 24.4177C56.8153 24.2641 57.1992 23.4195 57.1992 21.4999C57.1992 19.5803 56.8153 18.7356 55.8938 18.5821C54.7421 18.3517 54.5117 18.8892 54.5117 21.4999Z" fill="#CDF563"/>
</svg>
