<svg width="364" height="767" viewBox="0 0 364 767" fill="none" xmlns="http://www.w3.org/2000/svg">
<path d="M68.6866 4.79055C68.6866 4.79055 26.0078 17.9849 33.24 50.3655C35.065 58.5368 40.2275 63.9421 46.8315 67.095M46.8315 67.095C66.3971 76.436 98.6163 66.0063 94.1888 49.1618C89.0968 29.789 51.4672 40.6174 46.8315 67.095ZM46.8315 67.095C46.076 71.41 46.1968 76.1406 47.4775 81.2238C50.9132 94.8605 60.4447 102.37 70.7889 105.494M70.7889 105.494C87.9613 110.682 107.373 103.787 104.853 92.7837C101.284 77.2038 73.2455 86.6469 70.7889 105.494ZM70.7889 105.494C70.4654 107.976 70.5854 110.62 71.263 113.392C77.0873 137.217 108.207 130.556 108.207 130.556" stroke="#D1D5DB" stroke-opacity="0.15" stroke-width="8.42291"/>
<path d="M142.188 256.389C90.65 248.593 81.6325 360.528 30.0996 352.699C-1.51407 347.897 -3.07124 298.023 -34.7159 302.616C-64.9013 306.998 -58.4276 346.182 -83.3362 363.804C-151.779 412.223 -237.049 231.457 -290.621 308.171C-368.425 419.584 -103.007 426.211 -148.101 512.391C-172.716 559.433 -270.448 534.839 -261.546 587.191C-248.159 665.923 -115.718 559.095 -65.4369 618.175C-31.8103 657.686 -79.5664 726.346 -31.9014 746.779C23.6222 770.582 23.2041 660.875 79.7604 639.649C180.615 601.797 251.735 825.136 331.432 752.604C411.319 679.9 201.633 591.447 241.36 490.95C260.63 442.201 355.841 442.39 336.569 393.642C316.137 341.959 232.131 419.099 185.369 389.127C138.891 359.338 196.757 264.644 142.188 256.389Z" stroke="#D1D5DB" stroke-opacity="0.15" stroke-width="27" stroke-dasharray="4.5 4.5"/>
</svg>
