<svg width="61" height="61" viewBox="0 0 61 61" fill="none" xmlns="http://www.w3.org/2000/svg">
<g filter="url(#filter0_dd_703_1399)">
<circle cx="30.7606" cy="22.2391" r="10.2391" fill="white"/>
<path fill-rule="evenodd" clip-rule="evenodd" d="M27.5768 16.2673C26.037 16.2673 24.7888 17.5156 24.7888 19.0553V25.4846C24.7888 27.0244 26.037 28.2726 27.5768 28.2726H34.0061C35.5459 28.2726 36.7941 27.0244 36.7941 25.4846V19.0553C36.7941 17.5156 35.5459 16.2673 34.0061 16.2673H27.5768ZM23.9355 19.0553C23.9355 17.0443 25.5658 15.4141 27.5768 15.4141H34.0061C36.0171 15.4141 37.6474 17.0443 37.6474 19.0553V25.4846C37.6474 27.4956 36.0171 29.1259 34.0061 29.1259H27.5768C25.5658 29.1259 23.9355 27.4956 23.9355 25.4846V19.0553ZM31.1332 20.1202C30.6869 20.054 30.2311 20.1303 29.8306 20.3381C29.4301 20.5459 29.1054 20.8747 28.9025 21.2777C28.6997 21.6807 28.629 22.1374 28.7007 22.5829C28.7724 23.0283 28.9827 23.4398 29.3018 23.7589C29.6208 24.0779 30.0323 24.2882 30.4778 24.3599C30.9232 24.4316 31.38 24.361 31.783 24.1581C32.186 23.9553 32.5148 23.6305 32.7226 23.23C32.9304 22.8296 33.0066 22.3737 32.9404 21.9274C32.8729 21.4722 32.6608 21.0507 32.3354 20.7253C32.0099 20.3998 31.5885 20.1877 31.1332 20.1202ZM29.4376 19.5807C29.9974 19.2902 30.6345 19.1837 31.2584 19.2762C31.8947 19.3705 32.4838 19.6671 32.9387 20.1219C33.3936 20.5768 33.6901 21.1659 33.7845 21.8023C33.877 22.4261 33.7704 23.0632 33.48 23.623C33.1895 24.1828 32.7299 24.6368 32.1666 24.9203C31.6033 25.2038 30.9649 25.3025 30.3422 25.2023C29.7196 25.1022 29.1444 24.8082 28.6984 24.3622C28.2525 23.9163 27.9585 23.3411 27.8583 22.7184C27.7581 22.0958 27.8568 21.4574 28.1403 20.8941C28.4239 20.3307 28.8778 19.8711 29.4376 19.5807ZM34.328 18.3072C34.0924 18.3072 33.9014 18.4982 33.9014 18.7338C33.9014 18.9694 34.0924 19.1604 34.328 19.1604H34.3354C34.571 19.1604 34.762 18.9694 34.762 18.7338C34.762 18.4982 34.571 18.3072 34.3354 18.3072H34.328Z" fill="black"/>
</g>
<defs>
<filter id="filter0_dd_703_1399" x="0.521484" y="0" width="60.478" height="60.4785" filterUnits="userSpaceOnUse" color-interpolation-filters="sRGB">
<feFlood flood-opacity="0" result="BackgroundImageFix"/>
<feColorMatrix in="SourceAlpha" type="matrix" values="0 0 0 0 0 0 0 0 0 0 0 0 0 0 0 0 0 0 127 0" result="hardAlpha"/>
<feMorphology radius="4" operator="erode" in="SourceAlpha" result="effect1_dropShadow_703_1399"/>
<feOffset dy="8"/>
<feGaussianBlur stdDeviation="12"/>
<feColorMatrix type="matrix" values="0 0 0 0 0.0941176 0 0 0 0 0.152941 0 0 0 0 0.294118 0 0 0 0.08 0"/>
<feBlend mode="normal" in2="BackgroundImageFix" result="effect1_dropShadow_703_1399"/>
<feColorMatrix in="SourceAlpha" type="matrix" values="0 0 0 0 0 0 0 0 0 0 0 0 0 0 0 0 0 0 127 0" result="hardAlpha"/>
<feMorphology radius="6" operator="erode" in="SourceAlpha" result="effect2_dropShadow_703_1399"/>
<feOffset dy="6"/>
<feGaussianBlur stdDeviation="6"/>
<feColorMatrix type="matrix" values="0 0 0 0 0.0941176 0 0 0 0 0.152941 0 0 0 0 0.294118 0 0 0 0.12 0"/>
<feBlend mode="normal" in2="effect1_dropShadow_703_1399" result="effect2_dropShadow_703_1399"/>
<feBlend mode="normal" in="SourceGraphic" in2="effect2_dropShadow_703_1399" result="shape"/>
</filter>
</defs>
</svg>
