<svg width="34" height="34" viewBox="0 0 34 34" fill="none" xmlns="http://www.w3.org/2000/svg">
<path d="M27.03 15.13C21.59 11.9 12.495 11.56 7.31 13.175C6.46 13.43 5.61 12.92 5.355 12.155C5.1 11.305 5.61 10.455 6.375 10.2C12.41 8.415 22.355 8.755 28.645 12.495C29.41 12.92 29.665 13.94 29.24 14.705C28.815 15.3 27.795 15.555 27.03 15.13ZM26.86 19.89C26.435 20.485 25.67 20.74 25.075 20.315C20.485 17.51 13.515 16.66 8.16 18.36C7.48 18.53 6.715 18.19 6.545 17.51C6.375 16.83 6.715 16.065 7.395 15.895C13.6 14.025 21.25 14.96 26.52 18.19C27.03 18.445 27.285 19.295 26.86 19.89ZM24.82 24.565C24.48 25.075 23.885 25.245 23.375 24.905C19.38 22.44 14.365 21.93 8.415 23.29C7.82 23.46 7.31 23.035 7.14 22.525C6.97 21.93 7.395 21.42 7.905 21.25C14.365 19.805 19.975 20.4 24.395 23.12C24.99 23.375 25.075 24.055 24.82 24.565ZM17 0C14.7675 0 12.5569 0.439718 10.4944 1.29405C8.43185 2.14838 6.55778 3.40059 4.97918 4.97918C1.79107 8.1673 0 12.4913 0 17C0 21.5087 1.79107 25.8327 4.97918 29.0208C6.55778 30.5994 8.43185 31.8516 10.4944 32.706C12.5569 33.5603 14.7675 34 17 34C21.5087 34 25.8327 32.2089 29.0208 29.0208C32.2089 25.8327 34 21.5087 34 17C34 14.7675 33.5603 12.5569 32.706 10.4944C31.8516 8.43185 30.5994 6.55778 29.0208 4.97918C27.4422 3.40059 25.5682 2.14838 23.5056 1.29405C21.4431 0.439718 19.2325 0 17 0Z" fill="#F8F8F8"/>
</svg>
