<svg width="262" height="367" viewBox="0 0 262 367" fill="none" xmlns="http://www.w3.org/2000/svg">
<g opacity="0.5">
<path d="M119.151 7.12009C119.151 7.12009 10.2285 40.794 28.686 123.434C33.3438 144.288 46.519 158.083 63.3734 166.13M63.3734 166.13C113.308 189.969 195.536 163.351 184.236 120.362C171.24 70.9196 75.2043 98.5553 63.3734 166.13ZM63.3734 166.13C61.4454 177.142 61.7537 189.215 65.0222 202.189C73.7905 236.991 98.1163 256.156 124.516 264.131M124.516 264.131C168.343 277.37 217.885 259.772 211.452 231.691C202.344 191.929 130.786 216.029 124.516 264.131ZM124.516 264.131C123.691 270.463 123.997 277.212 125.726 284.286C140.591 345.09 220.012 328.092 220.012 328.092" stroke="#6834F7" stroke-width="10.8"/>
</g>
</svg>
